<svg width="1200" height="1200" viewBox="0 0 1200 1200" fill="none" xmlns="http://www.w3.org/2000/svg">
  <rect width="1200" height="1200" rx="220" fill="#FF5A0A"/>
  <path d="M279 323C279 285.445 309.445 255 347 255H691C742.569 255 781.145 302.619 768.309 352.565C603.178 382.791 436.053 459.956 279 552V323Z" fill="white"/>
  <path d="M820 349C820 333.536 807.323 321.257 791.893 322.282C605.11 334.694 413.228 415.741 279 543.67V582.39C456.152 456.262 637.674 378.92 820 349Z" fill="#FF5A0A"/>
  <path d="M279 585C279 558.49 293.607 534.132 317.027 521.668C448.991 451.458 602.885 402 802 402H802.686C812.248 402 820 409.752 820 419.314V456C649.475 456 492.548 501.809 366 593.409V651C366 673.091 383.909 691 406 691H444.5V754C444.5 777.472 425.472 796.5 402 796.5H344C308.102 796.5 279 767.398 279 731.5V585Z" fill="white"/>
  <path d="M539 691C539 564.636 641.426 462.21 767.79 462.21H879.5C925.063 462.21 962 499.147 962 544.71V676.29C962 803.814 858.994 907.21 731.5 907.21H589.29C561.572 907.21 539 884.638 539 856.92V749.29H711.5C726.688 749.29 739 736.978 739 721.79V644.21C739 629.022 726.688 616.71 711.5 616.71H675.5C660.312 616.71 648 629.022 648 644.21V690.5H539V691ZM648 834.21H731.5C809.311 834.21 872.5 771.339 872.5 693.5V584.21C872.5 566.535 858.175 552.21 840.5 552.21H768.5C682.068 552.21 612 622.278 612 708.71V798.21C612 818.092 628.118 834.21 648 834.21Z" fill="white"/>
</svg>
